Coordinates
version=1
nRows=14
nColumns=36
inDegrees=yes

Units are S.I. units (second, meters, Newtons, ...)
If the header above contains a line with 'inDegrees', this indicates whether rotational values are in degrees (yes) or radians (no).

endheader
time	pelvis_tilt	pelvis_list	pelvis_rotation	pelvis_tx	pelvis_ty	pelvis_tz	hip_flexion_r	hip_adduction_r	hip_rotation_r	knee_angle_r	knee_angle_r_beta	ankle_angle_r	subtalar_angle_r	mtp_angle_r	hip_flexion_l	hip_adduction_l	hip_rotation_l	knee_angle_l	knee_angle_l_beta	ankle_angle_l	subtalar_angle_l	mtp_angle_l	lumbar_extension	lumbar_bending	lumbar_rotation	arm_flex_r	arm_add_r	arm_rot_r	elbow_flex_r	pro_sup_r	arm_flex_l	arm_add_l	arm_rot_l	elbow_flex_l	pro_sup_l
      6.67083330	     -8.36159168	     -1.29322078	      3.24240737	      0.38174419	      1.05925452	     -0.12793561	      8.67588483	     -8.59656339	    -18.09392052	      8.77805716	      0.15320600	    -29.08648646	      3.57055731	     -7.49999987	     11.60162103	     -6.40135424	     -2.39050581	      7.95445017	      0.13883135	    -33.05194680	      1.40390501	     -7.49999987	      5.96731467	     -1.15207559	      0.70916396	    293.73473726	    -37.26642982	    234.88991562	     47.63307544	     46.03670979	    117.56046342	   -136.06653627	     49.29128819	     44.68698113	     45.86674036
      6.67500000	     -8.19268494	     -1.26307714	      3.29537333	      0.38127343	      1.04878562	     -0.12719616	      8.68758039	     -8.70927678	    -17.76733568	      9.11529531	      0.15909192	    -29.73529959	      3.79713169	     -7.49999987	     11.63131650	     -6.45036506	     -2.12374300	      8.32832775	      0.14535674	    -33.44336689	      1.53527365	     -7.49999987	      5.92756144	     -1.16936482	      0.69283298	    293.62838406	    -35.93303473	    236.80662611	     49.52770131	     46.41144346	    118.24614971	   -136.07583289	     49.85959606	     45.42692053	     46.26202393
      6.67916670	     -7.99224037	     -1.15472506	      3.33929091	      0.38183454	      1.03515110	     -0.12518424	      8.71221762	     -8.86316201	    -17.45257209	      9.69717650	      0.16924766	    -30.11096952	      3.67295952	     -7.49999987	     11.62310358	     -6.51311403	     -1.87833866	      8.96168208	      0.15641086	    -33.39532324	      1.39711279	     -7.49999987	      5.80921054	     -1.31287952	      0.90719250	    293.15883114	    -34.58853613	    238.65165529	     51.14795682	     43.96538790	    118.55066681	   -135.74744494	     50.78337961	     45.75769286	     44.80725488
      6.68333330	     -7.72696155	     -0.99276216	      3.27877377	      0.37997505	      1.02595726	     -0.12448483	      8.76703240	     -9.05005783	    -17.23782055	     10.36982121	      0.18098752	    -29.88315732	      3.62189687	     -7.49999987	     11.57937290	     -6.45992340	     -1.44821426	      9.78095051	      0.17070979	    -32.93333070	      1.14356775	     -7.49999987	      5.62189569	     -1.66004963	      0.83471928	    293.25800705	    -33.43324490	    240.28337985	     52.97995013	     44.04517606	    118.62056690	   -135.84863591	     50.99707797	     46.17397032	     44.81432850
      6.68750000	     -7.50025955	     -0.89169933	      3.22210695	      0.37898168	      1.01355448	     -0.12535852	      9.02049497	     -9.25289074	    -16.68580097	     11.49155486	      0.20056547	    -29.50837481	      3.02348166	     -7.49999987	     11.66287417	     -6.40698140	     -1.05793890	     10.89152609	      0.19009299	    -31.90539191	      0.90617191	     -7.49999987	      5.39413393	     -1.81893029	      1.04670349	    293.73184407	    -33.59270752	    240.82167111	     53.27331803	     44.64267907	    119.12069105	   -135.63729293	     51.36639950	     46.46615501	     45.34294253
      6.69166670	     -7.40227821	     -0.90087163	      3.18225915	      0.37901423	      1.00236320	     -0.12579499	      9.48118788	     -9.42275999	    -16.26166105	     12.90627755	      0.22525704	    -28.24816365	      2.35576212	     -7.49999987	     11.74289666	     -6.39468208	     -0.94076519	     12.19148359	      0.21278153	    -30.11652511	      0.20690830	     -7.49999987	      5.37709313	     -1.89824445	      1.07291604	    294.00921650	    -33.47476059	    241.09966924	     53.61737259	     45.01434135	    119.44801405	   -135.72901655	     51.57338159	     46.70346326	     45.66917689
      6.69583330	     -6.86675646	     -0.87262883	      3.27720565	      0.37722778	      0.99199914	     -0.12684452	      9.43564999	     -9.59148251	    -15.12563804	     14.53315079	      0.25365133	    -26.26947216	      1.34196099	     -7.49999987	     11.68166537	     -6.20124727	     -0.18522379	     14.12487879	      0.24652564	    -27.29757275	     -1.72053672	     -7.49999987	      4.55801445	     -1.90984165	      0.81483229	    293.81939987	    -32.96990319	    242.67399819	     54.35672417	     45.17065977	    119.40693407	   -136.05361290	     52.59208969	     46.10480311	     45.56384772
      6.70000000	     -6.47823452	     -0.83153672	      3.40432403	      0.37576310	      0.98488560	     -0.12770149	      9.56210636	     -9.79760976	    -13.74299418	     16.32604809	      0.28494329	    -23.03694369	      0.63944512	     -7.49999987	     11.79002680	     -6.06121771	      0.38496813	     16.44302150	      0.28698486	    -22.60688932	     -2.83192333	     -7.49999987	      4.03294189	     -2.00265979	      0.68698746	    294.33663130	    -33.23285627	    242.73755567	     54.01785879	     45.73222715	    120.15063323	   -136.25333518	     52.99511987	     46.32580308	     46.08267358
      6.70416670	     -6.04024024	     -0.91812565	      3.50438402	      0.37090821	      0.97619240	     -0.12574741	      9.94429409	     -9.77007700	    -12.35608202	     18.68202565	      0.32606286	    -18.25820660	     -0.53612700	     -7.49999987	     11.99295075	     -6.19932473	      0.67085782	     18.82387310	      0.32853856	    -16.87277112	     -3.63203653	     -7.49999987	      3.20242022	     -1.95418539	      0.59875891	    295.17479748	    -33.67667753	    242.91066703	     53.33902448	     46.62299956	    121.04126497	   -136.48615134	     53.61567934	     46.28131876	     46.90149841
      6.70833330	     -5.58833446	     -0.95859698	      3.51381799	      0.36914253	      0.96727651	     -0.12654021	     10.31332617	     -9.73982360	    -11.35262220	     21.27881175	      0.37138533	    -12.96866053	     -1.78206475	     -7.49999987	     12.16252204	     -6.36646293	      0.69708416	     21.15706953	      0.36926052	    -10.80969510	     -3.86005534	     -7.49999987	      2.34094855	     -1.91662111	      0.69857915	    296.46726842	    -34.85959059	    242.87988942	     51.81995274	     47.95834558	    122.22069633	   -136.59619826	     54.28582082	     46.14211951	     48.11455220
      6.71250000	     -5.26311469	     -1.02246642	      3.57370288	      0.36757752	      0.95450083	     -0.12907292	     10.94252315	     -9.72203489	    -10.45715010	     24.18002156	      0.42202099	     -7.49368889	     -3.24162546	     -7.49999987	     12.78979278	     -6.40335585	      0.99206146	     24.02953368	      0.41939448	     -5.19354236	     -4.13471476	     -7.49999987	      1.58474658	     -1.89106932	      0.28817848	    298.47701989	    -35.50818501	    243.10511855	     50.62278504	     48.40291611	    122.81375902	   -137.53488061	     55.05156897	     46.01052884	     48.22077284
      6.71666670	     -4.73498497	     -1.14580282	      3.30527843	      0.36518265	      0.94666465	     -0.12898116	     11.34816455	     -9.52810140	     -9.59272268	     26.84548500	      0.46854210	     -2.75984307	     -4.38975528	     -7.49999987	     12.77305898	     -6.43077363	      1.23290133	     25.82221106	      0.45068260	      0.07408876	     -3.98136327	     -7.49999987	      0.74975677	     -1.72525539	      0.29443230	    300.19503633	    -35.23257953	    243.81497505	     50.92954816	     48.92986300	    123.97883873	   -138.38863616	     55.84277342	     46.21894816	     48.60665165
      6.72083330	     -4.43811145	     -1.14060281	      3.18401480	      0.36417664	      0.93617201	     -0.13154573	     11.80499918	     -9.63166747	     -9.42565267	     29.10248532	      0.50793419	      1.49810958	     -5.21335652	     -7.49999987	     12.79611115	     -6.32890733	      0.98951621	     27.21606678	      0.47500997	      4.55441039	     -3.96738564	     -7.49999987	      0.26050717	     -1.66676558	      0.20290842	    301.76725821	    -34.75030273	    244.54961494	     51.27458451	     49.29957705	    125.10994197	   -139.32541071	     56.90509195	     46.54790609	     48.89206080
      6.72500000	     -4.16644808	     -1.18589383	      3.06138209	      0.36204577	      0.92701401	     -0.13400484	     12.20845661	     -9.69002815	     -9.35054980	     30.94312140	      0.54005935	      5.36367841	     -5.81068514	     -7.49999987	     12.90002002	     -6.15455609	      0.89697034	     28.44979880	      0.49654266	      8.29497928	     -4.66079162	     -7.49999987	     -0.12863342	     -1.55117297	      0.03387631	    303.79247196	    -34.42480269	    245.24060446	     51.49826969	     49.51631027	    126.31424419	   -140.48095443	     58.29722704	     46.87103237	     49.04548921
